<svg width="96" height="96" viewBox="0 0 96 96" fill="none" xmlns="http://www.w3.org/2000/svg">
<g clip-path="url(#clip0_133_16)">
<path d="M96.0001 94.6004L94.5001 89.4004L83.7001 52.6004H67.3001C73.1001 43.7004 76.1001 36.6004 76.1001 31.4004C76.1001 17.0004 64.4001 5.40039 50.1001 5.40039C35.7001 5.40039 24.1001 17.1004 24.1001 31.4004C24.1001 36.5004 27.1001 43.6004 32.9001 52.6004H16.4001L9.3001 76.9004L6.9001 85.0004L4.1001 94.7004H96.0001V94.6004Z" fill="#D5D6DB"/>
<path d="M91.9 90.5998L90.4 85.3998L79.6 48.4998H63.2C69 39.5998 72 32.4998 72 27.2998C72 12.8998 60.3 1.2998 46 1.2998C31.6 1.2998 20 12.9998 20 27.2998C20 32.3998 23 39.4998 28.8 48.4998H12.3L5.2 72.7998L2.8 80.8998L0 90.5998H91.9Z" fill="white"/>
<path d="M83.5999 76.3996L76.5999 52.5996H70.3L50.7 61.6996L83.5999 76.3996Z" fill="#44C4A1"/>
<path d="M15.4001 52.5996L9.1001 73.9996L57.7001 52.5996H15.4001Z" fill="#EBF0F3"/>
<path d="M6.6999 82.1004L5.3999 86.5004H86.4999L85.9999 84.8004L43.7999 64.9004L6.6999 82.1004Z" fill="#64798A"/>
<path d="M50.7 61.6996L70.3 52.5996H57.7L9.09995 73.9996L6.69995 82.0996L43.7999 64.8996L86 84.7996L83.6 76.3996L50.7 61.6996Z" fill="#FCD462"/>
<path d="M24 27.4004C24 39.5004 46 64.5004 46 64.5004V5.40039C33.8 5.40039 24 15.3004 24 27.4004Z" fill="#E56353"/>
<path d="M46 5.40039V64.5004C46 64.5004 68 39.5004 68 27.4004C67.9 15.3004 58.1 5.40039 46 5.40039Z" fill="#D15241"/>
<path d="M45.9999 41.9998C54.0633 41.9998 60.5999 35.4632 60.5999 27.3998C60.5999 19.3364 54.0633 12.7998 45.9999 12.7998C37.9365 12.7998 31.3999 19.3364 31.3999 27.3998C31.3999 35.4632 37.9365 41.9998 45.9999 41.9998Z" fill="#EBF0F3"/>
</g>
<defs>
<clipPath id="clip0_133_16">
<rect width="96" height="96" fill="white"/>
</clipPath>
</defs>
</svg>
