<svg width="100" height="100" viewBox="0 0 100 100" fill="none" xmlns="http://www.w3.org/2000/svg">
<g clip-path="url(#clip0_133_13)">
<path d="M99.9942 74.7222C99.9942 75.2696 99.9775 76.4571 99.9446 77.3744C99.8642 79.6187 99.6862 82.5149 99.4172 83.8345C99.0128 85.8175 98.4024 87.6892 97.6065 89.2471C96.6648 91.0899 95.4636 92.7407 94.0362 94.1654C92.612 95.5873 90.9628 96.7838 89.1227 97.7217C87.5567 98.5197 85.6733 99.1305 83.6789 99.5331C82.3725 99.7969 79.4981 99.9714 77.268 100.051C76.3498 100.083 75.1621 100.1 74.6166 100.1L25.3758 100.092C24.8282 100.092 23.6409 100.075 22.7236 100.042C20.4792 99.9619 17.5831 99.784 16.2635 99.515C14.2805 99.1105 12.4087 98.5002 10.8509 97.7043C9.00791 96.7625 7.35723 95.5613 5.93252 94.134C4.51064 92.7098 3.31416 91.0606 2.37637 89.2205C1.57813 87.6544 0.967383 85.771 0.564746 83.7768C0.301074 82.4703 0.126563 79.5959 0.047168 77.3657C0.0145508 76.4477 -0.00195312 75.26 -0.00195312 74.7145L0.00585938 25.4735C0.00585938 24.926 0.0225586 23.7386 0.0554688 22.8213C0.136035 20.5769 0.313867 17.6808 0.58291 16.3612C0.987305 14.3782 1.59766 12.5064 2.39365 10.9485C3.33535 9.10566 4.53662 7.45488 5.96387 6.03018C7.38809 4.6084 9.03731 3.41182 10.8774 2.47393C12.4436 1.67588 14.3271 1.06514 16.3213 0.6625C17.6276 0.39873 20.5022 0.224219 22.7322 0.144922C23.6504 0.112207 24.8382 0.0957031 25.3835 0.0957031L74.6244 0.103613C75.1721 0.103613 76.3594 0.120313 77.2767 0.153223C79.5211 0.233789 82.4171 0.411621 83.7368 0.680664C85.7197 1.08506 87.5915 1.69541 89.1494 2.49141C90.9923 3.43311 92.643 4.63437 94.0677 6.06162C95.4895 7.48584 96.686 9.13496 97.6238 10.9752C98.4221 12.5413 99.0328 14.4247 99.4355 16.4189C99.6991 17.7254 99.8735 20.5998 99.953 22.83C99.9857 23.7481 100.002 24.9358 100.002 25.4813L99.9942 74.7222V74.7222Z" fill="url(#paint0_linear_133_13)"/>
<path d="M76.4942 23.7547C69.7238 16.9786 60.7199 13.245 51.1268 13.2412C31.3609 13.2412 15.2739 29.3221 15.266 49.0881C15.2635 55.4063 16.9147 61.5738 20.0528 67.0102L14.9653 85.5872L33.9756 80.6021C39.2135 83.458 45.1105 84.9631 51.1125 84.9656H51.1272C70.8911 84.9656 86.9796 68.8828 86.9876 49.1166C86.9914 39.5378 83.2648 30.5308 76.4942 23.7547ZM51.1272 78.911H51.115C45.7667 78.909 40.521 77.4727 35.9447 74.7578L34.8562 74.1121L23.5753 77.0704L26.5864 66.0751L25.8775 64.9477C22.8939 60.2037 21.3182 54.7203 21.3205 49.0904C21.327 32.6618 34.6979 19.2959 51.1388 19.2959C59.0998 19.2989 66.5835 22.4024 72.2109 28.0344C77.8384 33.6663 80.9357 41.1527 80.9328 49.1144C80.9264 65.5443 67.5555 78.911 51.1272 78.911ZM67.4764 56.5951C66.5802 56.1468 62.175 53.9797 61.3536 53.6808C60.5323 53.3817 59.9351 53.2323 59.3375 54.1292C58.7403 55.0259 57.0231 57.0435 56.5003 57.6413C55.9776 58.2392 55.455 58.314 54.559 57.8655C53.6629 57.4172 50.7758 56.4713 47.3533 53.4196C44.6897 51.0447 42.8913 48.1111 42.3687 47.2143C41.846 46.3175 42.3131 45.8328 42.7616 45.3861C43.1646 44.9849 43.6576 44.3399 44.1057 43.8169C44.5536 43.2939 44.703 42.9201 45.0017 42.3224C45.3004 41.7245 45.151 41.2014 44.927 40.753C44.703 40.3047 42.9109 35.8957 42.1643 34.1022C41.437 32.3556 40.6981 32.5919 40.1481 32.5645C39.6261 32.5385 39.0281 32.533 38.4309 32.533C37.8336 32.533 36.8628 32.7571 36.0415 33.6539C35.2202 34.5507 32.9055 36.7178 32.9055 41.1267C32.9055 45.5355 36.1161 49.795 36.5642 50.3928C37.0122 50.9906 42.8824 60.0384 51.8709 63.9184C54.0088 64.8412 55.6777 65.3924 56.9791 65.8053C59.1256 66.4868 61.0789 66.3907 62.6229 66.1602C64.3444 65.903 67.9241 63.9933 68.671 61.9009C69.4177 59.8084 69.4177 58.015 69.1936 57.6414C68.9696 57.2678 68.3724 57.0435 67.4764 56.5951Z" fill="white"/>
</g>
<defs>
<linearGradient id="paint0_linear_133_13" x1="50.0001" y1="0.0957031" x2="50.0001" y2="100.1" gradientUnits="userSpaceOnUse">
<stop stop-color="#61FD7D"/>
<stop offset="1" stop-color="#2BB826"/>
</linearGradient>
<clipPath id="clip0_133_13">
<rect width="100" height="100" fill="white"/>
</clipPath>
</defs>
</svg>
